<?xml version="1.0" encoding="UTF-8"?>
<svg id="Layer_1" data-name="Layer 1" xmlns="http://www.w3.org/2000/svg" viewBox="0 0 437.81 236.98" width="500" height="100">
  <defs>
    <style>
      .cls-1 {
        fill: #1c164b;
      }
    </style>
  </defs>
  <path class="cls-1" d="m361.2,223.99c0-.42.38-.66.99-.66.78,0,1.25.42,1.57,1.03l3.01-1.62c-.99-1.67-2.68-2.52-4.58-2.52-2.45,0-4.61,1.29-4.61,3.86,0,4.07,5.78,3.39,5.78,4.68,0,.47-.42.73-1.27.73-1.03,0-1.69-.49-2-1.39l-3.06,1.74c.92,1.91,2.7,2.8,5.05,2.8,2.54,0,4.89-1.15,4.89-3.86,0-4.35-5.78-3.46-5.78-4.8m-12.98-3.76c-1.55,0-2.73.56-3.36,1.43v-1.1h-3.53v11.76h3.53v-6.42c0-1.67.89-2.42,2.19-2.42,1.13,0,2.05.68,2.05,2.14v6.7h3.53v-7.22c0-3.17-2.02-4.87-4.4-4.87m-17.94,8.98c-1.53,0-2.7-1.11-2.7-2.77s1.17-2.77,2.7-2.77,2.7,1.11,2.7,2.77-1.18,2.77-2.7,2.77m0,3.43c3.46,0,6.23-2.7,6.23-6.21s-2.77-6.21-6.23-6.21-6.23,2.7-6.23,6.21,2.77,6.21,6.23,6.21m-14.58-.33h3.53v-11.76h-3.53v11.76Zm1.76-12.79c1.15,0,2.12-.96,2.12-2.12s-.96-2.12-2.12-2.12-2.12.96-2.12,2.12.96,2.12,2.12,2.12m-12.13,4.47c0-.42.38-.66.99-.66.78,0,1.25.42,1.58,1.03l3.01-1.62c-.99-1.67-2.68-2.52-4.58-2.52-2.45,0-4.61,1.29-4.61,3.86,0,4.07,5.78,3.39,5.78,4.68,0,.47-.42.73-1.27.73-1.04,0-1.69-.49-2-1.39l-3.06,1.74c.92,1.91,2.7,2.8,5.06,2.8,2.54,0,4.89-1.15,4.89-3.86,0-4.35-5.78-3.46-5.78-4.8m-12.16,8.32h3.53v-11.76h-3.53v11.76Zm1.76-12.79c1.15,0,2.12-.96,2.12-2.12s-.96-2.12-2.12-2.12-2.12.96-2.12,2.12.96,2.12,2.12,2.12m-11.31,13.12c2.3,0,4.3-1.2,5.31-3.03l-3.08-1.76c-.38.82-1.25,1.32-2.28,1.32-1.53,0-2.66-1.11-2.66-2.73s1.13-2.73,2.66-2.73c1.03,0,1.88.49,2.28,1.32l3.08-1.79c-1.01-1.81-3.03-3.01-5.31-3.01-3.57,0-6.23,2.7-6.23,6.21s2.66,6.21,6.23,6.21m-18.9-7.43c.33-1.2,1.22-1.86,2.56-1.86,1.06,0,2.12.49,2.49,1.86h-5.05Zm.07,2.63h8.35c.09-.45.14-.92.14-1.41,0-3.55-2.54-6.21-5.97-6.21-3.71,0-6.25,2.7-6.25,6.21s2.49,6.21,6.51,6.21c2.23,0,3.97-.82,5.13-2.42l-2.82-1.62c-.47.52-1.29.89-2.26.89-1.29,0-2.38-.42-2.82-1.65m-14.88,1.46c-1.62,0-2.8-1.11-2.8-2.87s1.18-2.87,2.8-2.87,2.8,1.11,2.8,2.87-1.18,2.87-2.8,2.87m2.8-13.45v5.81c-.78-.89-1.93-1.43-3.5-1.43-3.08,0-5.62,2.7-5.62,6.21s2.54,6.21,5.62,6.21c1.58,0,2.73-.54,3.5-1.43v1.11h3.53v-16.46h-3.53v-.02Zm-26.17,16.46h3.53v-17.16h-3.53v17.16Zm-8.93-11.76v6.42c0,1.67-.89,2.42-2.19,2.42-1.13,0-2.04-.68-2.04-2.14v-6.7h-3.53v7.22c0,3.17,2.02,4.87,4.4,4.87,1.55,0,2.73-.56,3.36-1.43v1.11h3.53v-11.76h-3.53Zm-11.71-1.65v-3.39c-3.9-.23-5.71,1.74-5.71,5.03h-1.58v3.39h1.58v8.37h3.53v-8.37h2.19v-3.39h-2.19c0-1.36.87-1.76,2.19-1.65m-14.46,3.74v-2.09h-3.53v11.76h3.53v-5.31c0-2.33,2.07-2.91,3.53-2.68v-4c-1.48,0-3.06.75-3.53,2.33m-16.9,2.56c.33-1.2,1.22-1.86,2.56-1.86,1.06,0,2.12.49,2.49,1.86h-5.05Zm.07,2.63h8.35c.09-.45.14-.92.14-1.41,0-3.55-2.54-6.21-5.97-6.21-3.71,0-6.25,2.7-6.25,6.21s2.49,6.21,6.51,6.21c2.23,0,3.97-.82,5.13-2.42l-2.82-1.62c-.47.52-1.29.89-2.26.89-1.29,0-2.38-.42-2.82-1.65m-10.67-7.29l-1.69,6.3-1.83-6.3h-3.29l-1.83,6.3-1.69-6.3h-3.76l3.76,11.76h3.29l1.88-6.28,1.88,6.28h3.29l3.76-11.76h-3.77Zm-23.51,8.65c-1.53,0-2.7-1.11-2.7-2.77s1.17-2.77,2.7-2.77,2.7,1.11,2.7,2.77-1.18,2.77-2.7,2.77m0,3.43c3.46,0,6.23-2.7,6.23-6.21s-2.77-6.21-6.23-6.21-6.23,2.7-6.23,6.21,2.77,6.21,6.23,6.21m-16.79-3.34c-1.62,0-2.8-1.11-2.8-2.87s1.18-2.87,2.8-2.87,2.8,1.11,2.8,2.87-1.17,2.87-2.8,2.87m.71-9.08c-1.58,0-2.73.54-3.5,1.43v-1.1h-3.53v16.46h3.53v-5.81c.78.89,1.93,1.43,3.5,1.43,3.08,0,5.62-2.7,5.62-6.21s-2.54-6.21-5.62-6.21m-23.73,2.42v-2.09h-3.53v11.76h3.53v-5.31c0-2.33,2.07-2.91,3.53-2.68v-4c-1.48,0-3.06.75-3.53,2.33m-14.58,6.56c-1.53,0-2.7-1.11-2.7-2.77s1.18-2.77,2.7-2.77,2.7,1.11,2.7,2.77-1.18,2.77-2.7,2.77m0,3.43c3.46,0,6.23-2.7,6.23-6.21s-2.77-6.21-6.23-6.21-6.23,2.7-6.23,6.21,2.77,6.21,6.23,6.21m-9.4-13.73v-3.39c-3.9-.23-5.71,1.74-5.71,5.03h-1.57v3.39h1.57v8.37h3.53v-8.37h2.19v-3.39h-2.19c0-1.36.87-1.76,2.19-1.65"/>
  <rect class="cls-1" x="23.26" y="203.01" width="1.2" height="46.71" transform="translate(-202.71 248.21) rotate(-89.49)"/>
  <rect class="cls-1" x="413.11" y="203.01" width="1.2" height="46.71" transform="translate(183.67 638.04) rotate(-89.49)"/>
  <path class="cls-1" d="m437.8,150.71c0-19.15-14.3-33.33-33.33-33.33s-33.46,14.18-33.46,32.96,14.93,33.46,35.08,33.46c11.94,0,22.39-5.1,28.86-13.18l-9.45-8.08c-3.61,4.73-10.7,8.71-19.03,8.71-10.32,0-18.16-5.97-20.4-15.05h51.37c.25-1.74.37-3.73.37-5.47m-33.46-20.77c9.08,0,16.42,5.85,18.53,14.8h-36.94c2.24-8.83,9.33-14.8,18.41-14.8"/>
  <polygon class="cls-1" points="332.33 168.87 364.05 128.94 364.05 118.86 313.42 118.86 313.42 132.3 344.64 132.3 312.93 172.22 312.93 182.3 364.92 182.3 364.92 168.87 332.33 168.87"/>
  <rect class="cls-1" x="286.31" y="118.86" width="13.93" height="63.44"/>
  <rect class="cls-1" x="185.95" y="118.86" width="13.93" height="63.44"/>
  <rect class="cls-1" x="155.74" y="92.74" width="13.93" height="89.56"/>
  <rect class="cls-1" x="125.8" y="118.86" width="13.93" height="63.44"/>
  <path class="cls-1" d="m112.22,131.55v-12.69h-17.91v-16.42h-13.93v16.42h-10.7v12.69h10.7v32.22c0,12.31,6.59,20.03,20.27,20.03,4.6,0,8.08-.87,11.57-2.61v-13.06c-2.49,1.24-5.22,2.24-8.71,2.24-5.85,0-9.2-2.86-9.2-8.83v-29.98h17.91Z"/>
  <path class="cls-1" d="m29.35,183.79c17.54,0,29.23-10.57,29.23-26.74v-38.19h-13.93v36.32c0,9.08-6.09,15.17-15.3,15.17s-15.42-6.09-15.42-15.17v-36.32H0v38.19c0,16.17,11.69,26.74,29.35,26.74"/>
  <path class="cls-1" d="m241,130.56c8.58,0,15.05,6.22,15.05,14.55s-6.47,14.55-15.05,14.55-15.17-6.34-15.17-14.55,6.47-14.55,15.17-14.55m36.88,70.42l.06-.02c-1.87-11.19-10.57-18.03-22.89-18.03h-21.77c-4.48,0-7.46-2.49-7.46-6.09,0-2.36,1.24-4.73,3.36-6.09,3.61,1.37,7.59,2.11,11.82,2.11,16.67,0,29.48-11.94,29.48-27.74,0-6.47-2.11-12.31-5.85-16.92.37-3.36,3.23-5.47,7.09-5.47h4.35v-12.93h-5.1c-8.08,0-13.93,4.23-15.55,10.95-4.23-2.11-9.08-3.36-14.43-3.36-16.79,0-29.48,11.94-29.48,27.74,0,7.96,3.23,14.93,8.58,19.9-5.1,2.98-8.33,8.96-8.33,15.3,0,9.58,7.59,16.17,18.91,16.17h21.77c4.55,0,8.07,1.67,9.83,4.49h15.61Z"/>
  <g>
    <path class="cls-1" d="m179.38,54.8c3.42,2.78,8.46,2.58,11.65-.61,3.4-3.4,3.4-8.92,0-12.32s-8.92-3.4-12.32,0c-3.33,3.33-3.39,8.69-.2,12.1l-40.47,40.86c-3.74-2.85-9.1-2.23-12.06,1.46-3.01,3.75-2.42,9.23,1.33,12.25,3.75,3.01,9.23,2.42,12.25-1.33,2.81-3.49,2.48-8.49-.61-11.59,0,0,40.43-40.82,40.43-40.82Z"/>
    <path class="cls-1" d="m299.54,95.7c-3.31-3.42-8.73-3.54-12.19-.31l-46.81-41.45,15.07-15.18c3.42,2.78,8.46,2.58,11.64-.61,3.4-3.4,3.4-8.92,0-12.32s-8.92-3.4-12.32,0c-3.33,3.33-3.39,8.69-.2,12.1l-15.1,15.21-43.91-38.89c3.05-3.7,2.54-9.17-1.15-12.24-3.7-3.07-9.19-2.57-12.27,1.13-3.07,3.7-2.57,9.19,1.13,12.27,3.39,2.82,8.29,2.62,11.45-.29l43.89,38.87-40.58,40.86c-3.74-2.88-9.12-2.25-12.09,1.45-3.01,3.75-2.42,9.23,1.33,12.25,3.75,3.01,9.23,2.42,12.25-1.33,2.8-3.48,2.48-8.46-.59-11.57l40.58-40.86,46.83,41.48c-2.75,3.37-2.61,8.35.49,11.55,3.35,3.46,8.86,3.55,12.32.2s3.55-8.86.2-12.32h.03Z"/>
  </g>
</svg>
